#!OML:ASF F:\VICON\USERDATA\INSTALL\rory3\rory3.ASF
:FULLY-SPECIFIED
:DEGREES
41
root 3.4165 17.7322 1.60621 12.2318 -49.6161 8.19752
lowerback -9.90743 1.05084 -2.59764
upperback -11.6114 1.16342 -0.589188
thorax -6.73875 0.606593 0.891533
lowerneck -3.45463 19.0043 12.5861
upperneck 10.5399 24.8642 -1.3845
head 5.42249 12.6104 -0.461372
rclavicle -4.90004e-014 -1.31198e-014
rhumerus 4.16433 -25.9599 17.2811
rradius 127.902
rwrist -58.2369
rhand -4.32895 -45.4335
rfingers 7.12502
rthumb 21.438 -74.2673
lclavicle -4.90004e-014 -1.31198e-014
lhumerus 27.9508 25.9441 -17.5005
lradius 33.1068
lwrist 40.6096
lhand -30.6757 -24.7992
lfingers 7.12502
lthumb -3.96998 5.14361
rfemur -8.97367 8.55354 -8.99824
rtibia 17.4519
rfoot -3.34551 -28.9217
rtoes 13.5718
lfemur -13.353 -5.71795 -24.1926
ltibia -1.51076e-014
lfoot -0.811181 25.767
ltoes 6.65885
42
root 3.41582 17.7345 1.58878 12.2607 -49.566 8.08406
lowerback -9.69311 0.994656 -2.62907
upperback -11.6913 1.08787 -0.424609
thorax -6.94913 0.581077 1.07518
lowerneck -2.83744 18.9193 12.4841
upperneck 9.95966 24.866 -1.71232
head 5.17152 12.5971 -0.636943
rclavicle 2.39536e-014 2.22639e-014
rhumerus 4.54363 -26.4242 17.2525
rradius 128.024
rwrist -59.5039
rhand -3.69317 -45.595
rfingers 7.12502
rthumb 22.0486 -74.3581
lclavicle 2.39536e-014 2.22639e-014
lhumerus 27.7933 25.8359 -17.4406
lradius 33.1463
lwrist 40.4786
lhand -30.2035 -23.9957
lfingers 7.12502
lthumb -3.51394 5.95505
rfemur -8.87373 8.74993 -8.85805
rtibia 17.362
rfoot -5.21632 -28.7757
rtoes 17.0495
lfemur -13.3661 -5.72487 -24.0326
ltibia 1.59028e-014
lfoot -0.681483 25.7093
ltoes 6.33887
43
root 3.41572 17.7361 1.57263 12.2098 -49.4331 8.03974
lowerback -9.45817 0.959163 -2.62644
upperback -11.7311 1.03692 -0.35849
thorax -7.12396 0.561181 1.13763
lowerneck -2.92889 18.9603 12.2234
upperneck 10.2075 24.8992 -1.4204
head 5.19768 12.6218 -0.509462
rclavicle 2.44505e-014 -7.95139e-015
rhumerus 4.57963 -26.6677 17.3613
rradius 128.25
rwrist -59.9987
rhand -3.17431 -45.5183
rfingers 7.12502
rthumb 22.5467 -74.2218
lclavicle 2.44505e-014 -7.95139e-015
lhumerus 28.0343 26.2013 -16.921
lradius 33.031
lwrist 39.8377
lhand -29.5819 -23.6547
lfingers 7.12502
lthumb -2.91364 6.30517
rfemur -8.69053 8.77255 -8.736
rtibia 17.296
rfoot -7.52419 -28.3441
rtoes 21.7471
lfemur -13.352 -5.82275 -23.9089
ltibia 3.97569e-015
lfoot -0.520703 25.6465
ltoes 5.78872
44
root 3.4146 17.7404 1.55781 12.3078 -49.3132 7.8657
lowerback -9.33425 0.961404 -2.51274
upperback -11.7003 1.03482 -0.37594
thorax -7.15452 0.551976 1.0541
lowerneck -3.31973 18.9812 12.0853
upperneck 10.5876 24.8528 -1.07599
head 5.31588 12.6098 -0.348764
rclavicle 4.31363e-014 -2.38542e-015
rhumerus 4.45644 -26.7334 17.3409
rradius 128.281
rwrist -59.822
rhand -2.93778 -45.3825
rfingers 7.12502
rthumb 22.7737 -74.0582
lclavicle 4.31363e-014 -2.38542e-015
lhumerus 28.2531 26.448 -16.7149
lradius 32.9758
lwrist 39.3997
lhand -29.3611 -23.7227
lfingers 7.12502
lthumb -2.70046 6.23995
rfemur -8.57501 8.69003 -8.53257
rtibia 17.2734
rfoot -9.19632 -27.7789
rtoes 25.18
lfemur -13.3544 -5.8923 -23.7033
ltibia 4.05521e-014
lfoot -0.733825 25.7071
ltoes 6.64587
45
root 3.41324 17.7468 1.53707 12.5438 -49.1964 7.59583
lowerback -9.25009 0.961219 -2.3859
upperback -11.6922 1.03025 -0.356598
thorax -7.18879 0.541891 1.00237
lowerneck -3.65255 19.0007 11.8714
upperneck 10.9256 24.8069 -0.662751
head 5.39414 12.6009 -0.171569
rclavicle -1.87852e-014 -7.95139e-015
rhumerus 4.60323 -26.6381 17.0793
rradius 128.127
rwrist -59.4132
rhand -2.27707 -45.0045
rfingers 7.12502
rthumb 23.4076 -73.6009
lclavicle -1.87852e-014 -7.95139e-015
lhumerus 28.2137 26.2755 -16.9389
lradius 33.0674
lwrist 39.5422
lhand -29.4931 -24.2178
lfingers 7.12502
lthumb -2.82796 5.74324
rfemur -8.5622 8.66232 -8.24891
rtibia 17.2345
rfoot -10.2885 -27.4749
rtoes 27.0176
lfemur -13.4428 -5.94561 -23.4155
ltibia -1.74931e-014
lfoot -0.874992 25.755
ltoes 7.4827
46
root 3.41202 17.7495 1.51608 12.6552 -49.0673 7.44742
lowerback -9.1653 0.953518 -2.3316
upperback -11.6851 1.01955 -0.320815
thorax -7.2269 0.535238 1.00823
lowerneck -3.92164 19.0677 11.7104
upperneck 11.2236 24.8307 -0.268911
head 5.46253 12.6278 -0.0052997
rclavicle -1.17283e-014 -2.54444e-014
rhumerus 4.54556 -26.7897 17.1522
rradius 128.187
rwrist -59.4292
rhand -1.84231 -44.9139
rfingers 7.12502
rthumb 23.8246 -73.4565
lclavicle -1.17283e-014 -2.54444e-014
lhumerus 28.0577 25.8273 -17.3429
lradius 33.1335
lwrist 39.9958
lhand -29.8085 -24.6774
lfingers 7.12502
lthumb -3.13256 5.2793
rfemur -8.51701 8.60978 -8.03759
rtibia 17.1757
rfoot -11.273 -27.0902
rtoes 27.8158
lfemur -13.4951 -6.03209 -23.2259
ltibia -3.02153e-014
lfoot -0.832939 25.7829
ltoes 7.63416
47
root 3.40809 17.7486 1.50607 12.6275 -49.0465 7.41369
lowerback -9.16756 0.958758 -2.27612
upperback -11.6216 1.02736 -0.344254
thorax -7.15266 0.533865 0.953358
lowerneck -3.98698 19.0503 11.9054
upperneck 11.1635 24.788 -0.337699
head 5.4837 12.6073 -0.0420724
rclavicle 2.32578e-014 1.59028e-015
rhumerus 4.55825 -27.0288 17.047
rradius 128.113
rwrist -59.5608
rhand -2.17641 -45.147
rfingers 7.12502
rthumb 23.5042 -73.7311
lclavicle 2.32578e-014 1.59028e-015
lhumerus 27.9414 25.4235 -17.7062
lradius 33.1165
lwrist 40.3012
lhand -30.2849 -25.0242
lfingers 7.12502
lthumb -3.5926 4.92527
rfemur -8.45189 8.52518 -7.9652
rtibia 17.1516
rfoot -9.42022 -27.4007
rtoes 23.6879
lfemur -13.4364 -6.03442 -23.1757
ltibia -1.82882e-014
lfoot -0.939602 25.8033
ltoes 8.04523
48
root 3.40366 17.7517 1.49808 12.7043 -49.0843 7.31938
lowerback -9.25451 0.97925 -2.14981
upperback -11.5435 1.05284 -0.401473
thorax -7.01256 0.533463 0.825445
lowerneck -3.99924 18.9501 12.3117
upperneck 10.9727 24.6631 -0.741537
head 5.51859 12.534 -0.20835
rclavicle 1.28812e-013 4.09496e-014
rhumerus 4.52295 -27.2772 16.8885
rradius 128.066
rwrist -59.591
rhand -3.22189 -45.6512
rfingers 7.12502
rthumb 22.501 -74.3602
lclavicle 1.28812e-013 4.09496e-014
lhumerus 28.0892 25.5616 -17.6003
lradius 33.0782
lwrist 40.2358
lhand -30.4784 -25.0476
lfingers 7.12502
lthumb -3.77946 4.89862
rfemur -8.49034 8.41256 -7.88159
rtibia 17.184
rfoot -6.28483 -28.0271
rtoes 17.9454
lfemur -13.4459 -5.97209 -23.0849
ltibia 2.38542e-015
lfoot -0.8576 25.7634
ltoes 7.93191
49
root 3.39984 17.7569 1.48487 12.7962 -49.015 7.28244
lowerback -9.3167 0.961329 -2.13004
upperback -11.5186 1.03016 -0.416224
thorax -6.94843 0.519548 0.799425
lowerneck -3.93835 18.9363 12.5689
upperneck 10.7682 24.6628 -1.02778
head 5.51104 12.5243 -0.325464
rclavicle 9.86966e-014 1.23246e-014
rhumerus 4.42778 -27.3937 16.9116
rradius 128.167
rwrist -59.5969
rhand -3.72942 -45.9497
rfingers 7.12502
rthumb 22.0138 -74.7169
lclavicle 9.86966e-014 1.23246e-014
lhumerus 28.3975 25.9794 -17.2051
lradius 32.9604
lwrist 39.9479
lhand -30.4615 -24.6274
lfingers 7.12502
lthumb -3.76317 5.31912
rfemur -8.52403 7.97356 -7.76621
rtibia 17.1139
rfoot 1.02438 -28.4843
rtoes 2.04082
lfemur -13.5474 -6.02577 -22.9956
ltibia -7.15625e-015
lfoot -0.613897 25.7403
ltoes 7.37393
50
root 3.39399 17.7592 1.47351 12.7999 -48.9746 7.30236
lowerback -9.31329 0.920123 -2.22879
upperback -11.544 0.980457 -0.357198
thorax -6.98126 0.504999 0.914867
lowerneck -3.86253 19.0538 12.5681
upperneck 10.7346 24.8194 -0.935386
head 5.48544 12.6062 -0.293191
rclavicle -5.92378e-014 4.77083e-015
rhumerus 4.51282 -27.3736 16.9141
rradius 128.288
rwrist -59.5732
rhand -3.22945 -45.6165
rfingers 7.12502
rthumb 22.4937 -74.3264
lclavicle -5.92378e-014 4.77083e-015
lhumerus 28.5178 26.0714 -16.9682
lradius 32.8059
lwrist 39.6384
lhand -30.3834 -24.0964
lfingers 7.12502
lthumb -3.68769 5.85144
rfemur -8.65806 7.23043 -7.62816
rtibia 17.1494
rfoot 16.0995 -23.2115
rtoes -29.2848
lfemur -13.5718 -6.06035 -22.9699
ltibia 6.36111e-015
lfoot -0.602746 25.7807
ltoes 7.30577
51
root 3.38918 17.7562 1.45951 12.8338 -49.0086 7.24873
lowerback -9.35746 0.909153 -2.20175
upperback -11.5285 0.967209 -0.329961
thorax -6.93859 0.497074 0.928849
lowerneck -3.8875 19.1442 12.4081
upperneck 10.8532 24.92 -0.673896
head 5.47989 12.6655 -0.189313
rclavicle -9.56154e-014 -2.46493e-014
rhumerus 4.67049 -27.407 16.7906
rradius 128.349
rwrist -59.4461
rhand -3.04027 -45.4452
rfingers 7.12502
rthumb 22.6753 -74.133
lclavicle -9.56154e-014 -2.46493e-014
lhumerus 28.3932 25.9567 -17.044
lradius 32.8588
lwrist 39.6655
lhand -30.2137 -23.7383
lfingers 7.12502
lthumb -3.52383 6.21232
rfemur -8.38927 7.86703 -7.773
rtibia 17.1035
rfoot -8.25513 -26.9168
rtoes 23.0866
lfemur -13.5812 -6.00481 -22.8975
ltibia -3.18055e-015
lfoot -0.588597 25.8097
ltoes 7.21641
52
root 3.38778 17.7597 1.43694 12.8565 -48.9143 7.18471
lowerback -9.35543 0.907478 -2.10758
upperback -11.4625 0.964569 -0.351465
thorax -6.86292 0.488019 0.85408
lowerneck -3.93471 19.1191 12.1111
upperneck 10.8386 24.8801 -0.487475
head 5.42029 12.6463 -0.115366
rclavicle -5.20816e-014 1.98785e-015
rhumerus 4.71708 -27.5714 16.7283
rradius 128.292
rwrist -59.348
rhand -3.44349 -45.7888
rfingers 7.12502
rthumb 22.2883 -74.5234
lclavicle -5.20816e-014 1.98785e-015
lhumerus 28.2442 25.8363 -17.2794
lradius 33.0266
lwrist 39.9805
lhand -30.1894 -23.9319
lfingers 7.12502
lthumb -3.5004 6.01913
rfemur -8.53159 7.30256 -7.46992
rtibia 17.1203
rfoot 11.3785 -25.3735
rtoes -20.0712
lfemur -13.6363 -6.06766 -22.7662
ltibia 5.1684e-014
lfoot -0.375757 25.7845
ltoes 6.85217
53
root 3.38689 17.7543 1.41163 12.7484 -48.7855 7.23591
lowerback -9.21759 0.882791 -2.16412
upperback -11.4138 0.935981 -0.347223
thorax -6.88641 0.479936 0.887577
lowerneck -4.01707 19.0697 11.9808
upperneck 10.8286 24.8177 -0.518633
head 5.41488 12.609 -0.111197
rclavicle 2.77305e-014 3.02153e-014
rhumerus 4.80025 -27.7241 16.6849
rradius 128.161
rwrist -59.2065
rhand -3.77631 -46.0803
rfingers 7.12502
rthumb 21.9688 -74.8528
lclavicle 2.77305e-014 3.02153e-014
lhumerus 28.0689 25.5957 -17.5462
lradius 33.1622
lwrist 40.3133
lhand -30.295 -24.3907
lfingers 7.12502
lthumb -3.60233 5.55865
rfemur -8.2179 7.81033 -7.50426
rtibia 16.9528
rfoot -4.54597 -27.6922
rtoes 14.8087
lfemur -13.6541 -6.1806 -22.7098
ltibia 1.90833e-014
lfoot -0.230518 25.7759
ltoes 6.82595
54
root 3.3832 17.7553 1.39722 12.6143 -48.7424 7.32337
lowerback -9.06549 0.873332 -2.3439
upperback -11.4216 0.929971 -0.310717
thorax -6.98589 0.494036 1.02384
lowerneck -4.16092 19.0565 12.174
upperneck 11.0642 24.7942 -0.697406
head 5.55804 12.5939 -0.147678
rclavicle -4.2043e-014 -7.15625e-015
rhumerus 4.88256 -27.772 16.6914
rradius 128.1
rwrist -59.1189
rhand -3.97192 -46.2228
rfingers 7.12502
rthumb 21.7809 -75.0172
lclavicle -4.2043e-014 -7.15625e-015
lhumerus 28.2653 25.7004 -17.1538
lradius 33.136
lwrist 39.9678
lhand -30.3125 -24.259
lfingers 7.12502
lthumb -3.61926 5.68998
rfemur -8.24949 7.50045 -7.41187
rtibia 16.9148
rfoot 6.9437 -27.2316
rtoes -11.2506
lfemur -13.6172 -6.22277 -22.7293
ltibia 1.19271e-014
lfoot -0.141257 25.7791
ltoes 6.72755
